<mxfile host="app.diagrams.net" modified="2024-05-23T10:51:21.139Z" agent="Mozilla/5.0 (Macintosh; Intel Mac OS X 10.15; rv:126.0) Gecko/20100101 Firefox/126.0" etag="i1WdxbyxSLW4BXt7tGhx" version="24.3.1" type="device">
  <diagram name="Page-1" id="oMxA-YWLd7iP2-zVah8Q">
    <mxGraphModel dx="1343" dy="343" grid="1" gridSize="10" guides="1" tooltips="1" connect="1" arrows="1" fold="1" page="1" pageScale="1" pageWidth="3300" pageHeight="4681" math="1" shadow="0">
      <root>
        <mxCell id="0" />
        <mxCell id="1" parent="0" />
        <mxCell id="p1k_FwjKVzNMvpwTHHCN-52" value="$$\hat{\mathbf{y}} = f_1(\mathbf{X}) + ... + f_M(\mathbf{X})$$" style="text;html=1;align=center;verticalAlign=middle;whiteSpace=wrap;rounded=0;spacing=0;" vertex="1" parent="1">
          <mxGeometry x="660" y="173" width="150" height="30" as="geometry" />
        </mxCell>
        <mxCell id="p1k_FwjKVzNMvpwTHHCN-58" value="Training data" style="text;html=1;align=center;verticalAlign=middle;whiteSpace=wrap;rounded=0;" vertex="1" parent="1">
          <mxGeometry x="90" y="265.77" width="80" height="30" as="geometry" />
        </mxCell>
        <mxCell id="p1k_FwjKVzNMvpwTHHCN-59" value="" style="endArrow=none;startArrow=none;html=1;rounded=0;endFill=0;startFill=0;dashed=1;" edge="1" parent="1">
          <mxGeometry width="50" height="50" relative="1" as="geometry">
            <mxPoint x="90" y="230" as="sourcePoint" />
            <mxPoint x="580" y="230" as="targetPoint" />
          </mxGeometry>
        </mxCell>
        <mxCell id="p1k_FwjKVzNMvpwTHHCN-60" value="" style="endArrow=none;startArrow=none;html=1;rounded=0;endFill=0;startFill=0;dashed=1;" edge="1" parent="1">
          <mxGeometry width="50" height="50" relative="1" as="geometry">
            <mxPoint x="90" y="150" as="sourcePoint" />
            <mxPoint x="580" y="150" as="targetPoint" />
          </mxGeometry>
        </mxCell>
        <mxCell id="p1k_FwjKVzNMvpwTHHCN-68" value="Weak learner $$f_i$$" style="text;html=1;align=center;verticalAlign=middle;whiteSpace=wrap;rounded=0;" vertex="1" parent="1">
          <mxGeometry x="80" y="184.95" width="100" height="30" as="geometry" />
        </mxCell>
        <mxCell id="p1k_FwjKVzNMvpwTHHCN-20" value="" style="endArrow=classic;html=1;rounded=0;fillColor=#fff2cc;strokeColor=#d6b656;strokeWidth=2;shape=flexArrow;endSize=5;startSize=0;gradientColor=#ffd966;width=6;" edge="1" parent="1">
          <mxGeometry width="50" height="50" relative="1" as="geometry">
            <mxPoint x="180" y="248.27" as="sourcePoint" />
            <mxPoint x="180" y="199.27" as="targetPoint" />
          </mxGeometry>
        </mxCell>
        <mxCell id="p1k_FwjKVzNMvpwTHHCN-21" value="Train" style="edgeLabel;html=1;align=center;verticalAlign=middle;resizable=0;points=[];" vertex="1" connectable="0" parent="p1k_FwjKVzNMvpwTHHCN-20">
          <mxGeometry x="0.2786" relative="1" as="geometry">
            <mxPoint y="38" as="offset" />
          </mxGeometry>
        </mxCell>
        <mxCell id="p1k_FwjKVzNMvpwTHHCN-72" value="" style="endArrow=classic;html=1;rounded=0;fillColor=#fff2cc;strokeColor=#d6b656;strokeWidth=2;shape=flexArrow;endSize=5;startSize=0;gradientColor=#ffd966;width=6;" edge="1" parent="1">
          <mxGeometry width="50" height="50" relative="1" as="geometry">
            <mxPoint x="180" y="160" as="sourcePoint" />
            <mxPoint x="180" y="111" as="targetPoint" />
          </mxGeometry>
        </mxCell>
        <mxCell id="p1k_FwjKVzNMvpwTHHCN-73" value="Test" style="edgeLabel;html=1;align=center;verticalAlign=middle;resizable=0;points=[];" vertex="1" connectable="0" parent="p1k_FwjKVzNMvpwTHHCN-72">
          <mxGeometry x="0.2786" relative="1" as="geometry">
            <mxPoint y="38" as="offset" />
          </mxGeometry>
        </mxCell>
        <mxCell id="p1k_FwjKVzNMvpwTHHCN-74" value="Residuals $$r_i$$" style="text;html=1;align=center;verticalAlign=middle;whiteSpace=wrap;rounded=0;" vertex="1" parent="1">
          <mxGeometry x="89" y="110" width="80" height="30" as="geometry" />
        </mxCell>
        <mxCell id="p1k_FwjKVzNMvpwTHHCN-85" value="" style="endArrow=classic;html=1;rounded=0;fillColor=#ffcd28;strokeColor=#d79b00;strokeWidth=2;shape=flexArrow;endSize=5;startSize=0;gradientColor=#ffa500;" edge="1" parent="1">
          <mxGeometry width="50" height="50" relative="1" as="geometry">
            <mxPoint x="580.57" y="190" as="sourcePoint" />
            <mxPoint x="650" y="190" as="targetPoint" />
          </mxGeometry>
        </mxCell>
        <mxCell id="p1k_FwjKVzNMvpwTHHCN-86" value="&amp;nbsp;Predict&amp;nbsp; " style="edgeLabel;html=1;align=center;verticalAlign=middle;resizable=0;points=[];labelBorderColor=default;" vertex="1" connectable="0" parent="p1k_FwjKVzNMvpwTHHCN-85">
          <mxGeometry x="0.2786" relative="1" as="geometry">
            <mxPoint x="-18" y="17" as="offset" />
          </mxGeometry>
        </mxCell>
        <mxCell id="p1k_FwjKVzNMvpwTHHCN-88" value="" style="endArrow=classic;html=1;rounded=0;fillColor=#e6d0de;strokeColor=#996185;strokeWidth=2;shape=flexArrow;endSize=5;startSize=0;gradientColor=#d5739d;width=6;edgeStyle=orthogonalEdgeStyle;" edge="1" parent="1">
          <mxGeometry width="50" height="50" relative="1" as="geometry">
            <mxPoint x="280" y="120" as="sourcePoint" />
            <mxPoint x="340" y="280" as="targetPoint" />
            <Array as="points">
              <mxPoint x="310" y="120" />
              <mxPoint x="310" y="280" />
            </Array>
          </mxGeometry>
        </mxCell>
        <mxCell id="p1k_FwjKVzNMvpwTHHCN-89" value=" Use residuals as  &#xa; target" style="edgeLabel;align=center;verticalAlign=middle;resizable=0;points=[];labelBorderColor=default;fontSize=11;spacingLeft=0;spacingRight=0;" vertex="1" connectable="0" parent="p1k_FwjKVzNMvpwTHHCN-88">
          <mxGeometry x="0.2786" relative="1" as="geometry">
            <mxPoint x="-1" y="-42" as="offset" />
          </mxGeometry>
        </mxCell>
        <mxCell id="p1k_FwjKVzNMvpwTHHCN-109" value="" style="group" vertex="1" connectable="0" parent="1">
          <mxGeometry x="322.834" y="59.05" width="116" height="279.95" as="geometry" />
        </mxCell>
        <mxCell id="p1k_FwjKVzNMvpwTHHCN-53" value="$$\mathbf{r}_2 = \mathbf{r}_{1} - f_2(\mathbf{X})$$" style="text;html=1;align=center;verticalAlign=middle;whiteSpace=wrap;rounded=0;" vertex="1" parent="p1k_FwjKVzNMvpwTHHCN-109">
          <mxGeometry width="116" height="30" as="geometry" />
        </mxCell>
        <mxCell id="p1k_FwjKVzNMvpwTHHCN-55" value="$$(\mathbf{X}, \mathbf{r}_1)$$" style="text;html=1;align=center;verticalAlign=middle;whiteSpace=wrap;rounded=0;" vertex="1" parent="p1k_FwjKVzNMvpwTHHCN-109">
          <mxGeometry x="28" y="249.95" width="60" height="30" as="geometry" />
        </mxCell>
        <mxCell id="p1k_FwjKVzNMvpwTHHCN-67" value="" style="group" vertex="1" connectable="0" parent="p1k_FwjKVzNMvpwTHHCN-109">
          <mxGeometry x="27.5394" y="196.245" width="60.9212" height="50.94999999999999" as="geometry" />
        </mxCell>
        <mxCell id="p1k_FwjKVzNMvpwTHHCN-62" value="" style="shape=hexagon;perimeter=hexagonPerimeter2;whiteSpace=wrap;html=1;fixedSize=1;aspect=fixed;fillColor=#d5e8d4;strokeColor=#82b366;" vertex="1" parent="p1k_FwjKVzNMvpwTHHCN-67">
          <mxGeometry x="10" y="31" width="29.9212" height="19.95" as="geometry" />
        </mxCell>
        <mxCell id="p1k_FwjKVzNMvpwTHHCN-63" value="" style="shape=hexagon;perimeter=hexagonPerimeter2;whiteSpace=wrap;html=1;fixedSize=1;aspect=fixed;fillColor=#d5e8d4;strokeColor=#82b366;" vertex="1" parent="p1k_FwjKVzNMvpwTHHCN-67">
          <mxGeometry x="31" y="19.95" width="29.9212" height="19.95" as="geometry" />
        </mxCell>
        <mxCell id="p1k_FwjKVzNMvpwTHHCN-64" value="" style="shape=hexagon;perimeter=hexagonPerimeter2;whiteSpace=wrap;html=1;fixedSize=1;aspect=fixed;fillColor=#d5e8d4;strokeColor=#82b366;" vertex="1" parent="p1k_FwjKVzNMvpwTHHCN-67">
          <mxGeometry y="11" width="29.9212" height="19.95" as="geometry" />
        </mxCell>
        <mxCell id="p1k_FwjKVzNMvpwTHHCN-65" value="" style="shape=hexagon;perimeter=hexagonPerimeter2;whiteSpace=wrap;html=1;fixedSize=1;aspect=fixed;fillColor=#d5e8d4;strokeColor=#82b366;" vertex="1" parent="p1k_FwjKVzNMvpwTHHCN-67">
          <mxGeometry x="23" width="29.9212" height="19.95" as="geometry" />
        </mxCell>
        <mxCell id="p1k_FwjKVzNMvpwTHHCN-76" value="" style="group" vertex="1" connectable="0" parent="p1k_FwjKVzNMvpwTHHCN-109">
          <mxGeometry x="27.5394" y="32.47500000000001" width="60.9212" height="50.95" as="geometry" />
        </mxCell>
        <mxCell id="p1k_FwjKVzNMvpwTHHCN-47" value="" style="shape=hexagon;perimeter=hexagonPerimeter2;whiteSpace=wrap;html=1;fixedSize=1;aspect=fixed;fillColor=#d5e8d4;strokeColor=#82b366;" vertex="1" parent="p1k_FwjKVzNMvpwTHHCN-76">
          <mxGeometry x="10" y="31" width="29.9212" height="19.95" as="geometry" />
        </mxCell>
        <mxCell id="p1k_FwjKVzNMvpwTHHCN-48" value="" style="shape=hexagon;perimeter=hexagonPerimeter2;whiteSpace=wrap;html=1;fixedSize=1;aspect=fixed;fillColor=#d5e8d4;strokeColor=#82b366;" vertex="1" parent="p1k_FwjKVzNMvpwTHHCN-76">
          <mxGeometry y="11" width="29.9212" height="19.95" as="geometry" />
        </mxCell>
        <mxCell id="p1k_FwjKVzNMvpwTHHCN-49" value="" style="shape=hexagon;perimeter=hexagonPerimeter2;whiteSpace=wrap;html=1;fixedSize=1;aspect=fixed;fillColor=#d5e8d4;strokeColor=#82b366;" vertex="1" parent="p1k_FwjKVzNMvpwTHHCN-76">
          <mxGeometry x="31" y="20" width="29.9212" height="19.95" as="geometry" />
        </mxCell>
        <mxCell id="p1k_FwjKVzNMvpwTHHCN-50" value="" style="shape=hexagon;perimeter=hexagonPerimeter2;whiteSpace=wrap;html=1;fixedSize=1;aspect=fixed;fillColor=#d5e8d4;strokeColor=#82b366;" vertex="1" parent="p1k_FwjKVzNMvpwTHHCN-76">
          <mxGeometry x="23" width="29.9212" height="19.95" as="geometry" />
        </mxCell>
        <mxCell id="p1k_FwjKVzNMvpwTHHCN-54" value="$$f_2(\mathbf{X})$$" style="text;html=1;align=center;verticalAlign=middle;whiteSpace=wrap;rounded=0;" vertex="1" parent="p1k_FwjKVzNMvpwTHHCN-109">
          <mxGeometry x="28" y="90.2204" width="60" height="30" as="geometry" />
        </mxCell>
        <mxCell id="p1k_FwjKVzNMvpwTHHCN-79" value="" style="group" vertex="1" connectable="0" parent="p1k_FwjKVzNMvpwTHHCN-109">
          <mxGeometry x="28.472500000000025" y="115.55999999999999" width="59.05499999999998" height="50.68000000000001" as="geometry" />
        </mxCell>
        <mxCell id="p1k_FwjKVzNMvpwTHHCN-80" style="rounded=0;orthogonalLoop=1;jettySize=auto;html=1;entryX=0.5;entryY=0;entryDx=0;entryDy=0;endArrow=none;endFill=0;" edge="1" parent="p1k_FwjKVzNMvpwTHHCN-79" source="p1k_FwjKVzNMvpwTHHCN-82" target="p1k_FwjKVzNMvpwTHHCN-83">
          <mxGeometry relative="1" as="geometry" />
        </mxCell>
        <mxCell id="p1k_FwjKVzNMvpwTHHCN-81" style="rounded=0;orthogonalLoop=1;jettySize=auto;html=1;entryX=0.5;entryY=0;entryDx=0;entryDy=0;endArrow=none;endFill=0;" edge="1" parent="p1k_FwjKVzNMvpwTHHCN-79" source="p1k_FwjKVzNMvpwTHHCN-82" target="p1k_FwjKVzNMvpwTHHCN-84">
          <mxGeometry relative="1" as="geometry" />
        </mxCell>
        <mxCell id="p1k_FwjKVzNMvpwTHHCN-82" value="" style="ellipse;whiteSpace=wrap;html=1;aspect=fixed;fillColor=#f8cecc;strokeColor=#b85450;" vertex="1" parent="p1k_FwjKVzNMvpwTHHCN-79">
          <mxGeometry x="19.685000000000002" width="19.685" height="19.68" as="geometry" />
        </mxCell>
        <mxCell id="p1k_FwjKVzNMvpwTHHCN-83" value="" style="ellipse;whiteSpace=wrap;html=1;aspect=fixed;fillColor=#f8cecc;strokeColor=#b85450;" vertex="1" parent="p1k_FwjKVzNMvpwTHHCN-79">
          <mxGeometry x="39.370000000000005" y="31" width="19.685" height="19.68" as="geometry" />
        </mxCell>
        <mxCell id="p1k_FwjKVzNMvpwTHHCN-84" value="" style="ellipse;whiteSpace=wrap;html=1;aspect=fixed;fillColor=#f8cecc;strokeColor=#b85450;" vertex="1" parent="p1k_FwjKVzNMvpwTHHCN-79">
          <mxGeometry y="31" width="19.685" height="19.68" as="geometry" />
        </mxCell>
        <mxCell id="p1k_FwjKVzNMvpwTHHCN-111" value="" style="group" vertex="1" connectable="0" parent="1">
          <mxGeometry x="181.102" y="59.05" width="116" height="279.95" as="geometry" />
        </mxCell>
        <mxCell id="p1k_FwjKVzNMvpwTHHCN-8" value="$$(\mathbf{X}, \mathbf{y})$$" style="text;html=1;align=center;verticalAlign=middle;whiteSpace=wrap;rounded=0;" vertex="1" parent="p1k_FwjKVzNMvpwTHHCN-111">
          <mxGeometry x="28" y="249.95" width="60" height="30" as="geometry" />
        </mxCell>
        <mxCell id="p1k_FwjKVzNMvpwTHHCN-110" value="" style="group" vertex="1" connectable="0" parent="p1k_FwjKVzNMvpwTHHCN-111">
          <mxGeometry width="116" height="254.21999999999997" as="geometry" />
        </mxCell>
        <mxCell id="p1k_FwjKVzNMvpwTHHCN-17" value="$$f_1(\mathbf{X})$$" style="text;html=1;align=center;verticalAlign=middle;whiteSpace=wrap;rounded=0;" vertex="1" parent="p1k_FwjKVzNMvpwTHHCN-110">
          <mxGeometry x="28" y="90.2204" width="60" height="30" as="geometry" />
        </mxCell>
        <mxCell id="p1k_FwjKVzNMvpwTHHCN-31" value="$$\mathbf{r}_1 = y - f_1(\mathbf{X})$$" style="text;html=1;align=center;verticalAlign=middle;whiteSpace=wrap;rounded=0;" vertex="1" parent="p1k_FwjKVzNMvpwTHHCN-110">
          <mxGeometry width="116" height="30" as="geometry" />
        </mxCell>
        <mxCell id="p1k_FwjKVzNMvpwTHHCN-66" value="" style="group" vertex="1" connectable="0" parent="p1k_FwjKVzNMvpwTHHCN-110">
          <mxGeometry x="25.5" y="189.21999999999997" width="65" height="65" as="geometry" />
        </mxCell>
        <mxCell id="p1k_FwjKVzNMvpwTHHCN-2" value="" style="rhombus;whiteSpace=wrap;html=1;fillColor=#dae8fc;strokeColor=#6c8ebf;" vertex="1" parent="p1k_FwjKVzNMvpwTHHCN-66">
          <mxGeometry y="10" width="30" height="30" as="geometry" />
        </mxCell>
        <mxCell id="p1k_FwjKVzNMvpwTHHCN-3" value="" style="rhombus;whiteSpace=wrap;html=1;fillColor=#dae8fc;strokeColor=#6c8ebf;" vertex="1" parent="p1k_FwjKVzNMvpwTHHCN-66">
          <mxGeometry x="35" y="26" width="30" height="30" as="geometry" />
        </mxCell>
        <mxCell id="p1k_FwjKVzNMvpwTHHCN-4" value="" style="rhombus;whiteSpace=wrap;html=1;fillColor=#dae8fc;strokeColor=#6c8ebf;" vertex="1" parent="p1k_FwjKVzNMvpwTHHCN-66">
          <mxGeometry x="10" y="35" width="30" height="30" as="geometry" />
        </mxCell>
        <mxCell id="p1k_FwjKVzNMvpwTHHCN-5" value="" style="rhombus;whiteSpace=wrap;html=1;fillColor=#dae8fc;strokeColor=#6c8ebf;" vertex="1" parent="p1k_FwjKVzNMvpwTHHCN-66">
          <mxGeometry x="27" width="30" height="30" as="geometry" />
        </mxCell>
        <mxCell id="p1k_FwjKVzNMvpwTHHCN-69" value="" style="group" vertex="1" connectable="0" parent="p1k_FwjKVzNMvpwTHHCN-110">
          <mxGeometry x="28.472500000000025" y="115.55999999999999" width="59.05499999999998" height="50.68000000000001" as="geometry" />
        </mxCell>
        <mxCell id="p1k_FwjKVzNMvpwTHHCN-15" style="rounded=0;orthogonalLoop=1;jettySize=auto;html=1;entryX=0.5;entryY=0;entryDx=0;entryDy=0;endArrow=none;endFill=0;" edge="1" parent="p1k_FwjKVzNMvpwTHHCN-69" source="p1k_FwjKVzNMvpwTHHCN-9" target="p1k_FwjKVzNMvpwTHHCN-13">
          <mxGeometry relative="1" as="geometry" />
        </mxCell>
        <mxCell id="p1k_FwjKVzNMvpwTHHCN-16" style="rounded=0;orthogonalLoop=1;jettySize=auto;html=1;entryX=0.5;entryY=0;entryDx=0;entryDy=0;endArrow=none;endFill=0;" edge="1" parent="p1k_FwjKVzNMvpwTHHCN-69" source="p1k_FwjKVzNMvpwTHHCN-9" target="p1k_FwjKVzNMvpwTHHCN-14">
          <mxGeometry relative="1" as="geometry" />
        </mxCell>
        <mxCell id="p1k_FwjKVzNMvpwTHHCN-9" value="" style="ellipse;whiteSpace=wrap;html=1;aspect=fixed;fillColor=#f8cecc;strokeColor=#b85450;" vertex="1" parent="p1k_FwjKVzNMvpwTHHCN-69">
          <mxGeometry x="19.685000000000002" width="19.685" height="19.68" as="geometry" />
        </mxCell>
        <mxCell id="p1k_FwjKVzNMvpwTHHCN-13" value="" style="ellipse;whiteSpace=wrap;html=1;aspect=fixed;fillColor=#f8cecc;strokeColor=#b85450;" vertex="1" parent="p1k_FwjKVzNMvpwTHHCN-69">
          <mxGeometry x="39.370000000000005" y="31" width="19.685" height="19.68" as="geometry" />
        </mxCell>
        <mxCell id="p1k_FwjKVzNMvpwTHHCN-14" value="" style="ellipse;whiteSpace=wrap;html=1;aspect=fixed;fillColor=#f8cecc;strokeColor=#b85450;" vertex="1" parent="p1k_FwjKVzNMvpwTHHCN-69">
          <mxGeometry y="31" width="19.685" height="19.68" as="geometry" />
        </mxCell>
        <mxCell id="p1k_FwjKVzNMvpwTHHCN-77" value="" style="group" vertex="1" connectable="0" parent="p1k_FwjKVzNMvpwTHHCN-110">
          <mxGeometry x="27.5394" y="32.47500000000001" width="60.9212" height="50.95" as="geometry" />
        </mxCell>
        <mxCell id="p1k_FwjKVzNMvpwTHHCN-26" value="" style="shape=hexagon;perimeter=hexagonPerimeter2;whiteSpace=wrap;html=1;fixedSize=1;aspect=fixed;fillColor=#d5e8d4;strokeColor=#82b366;" vertex="1" parent="p1k_FwjKVzNMvpwTHHCN-77">
          <mxGeometry x="10" y="31" width="29.9212" height="19.95" as="geometry" />
        </mxCell>
        <mxCell id="p1k_FwjKVzNMvpwTHHCN-27" value="" style="shape=hexagon;perimeter=hexagonPerimeter2;whiteSpace=wrap;html=1;fixedSize=1;aspect=fixed;fillColor=#d5e8d4;strokeColor=#82b366;" vertex="1" parent="p1k_FwjKVzNMvpwTHHCN-77">
          <mxGeometry y="11" width="29.9212" height="19.95" as="geometry" />
        </mxCell>
        <mxCell id="p1k_FwjKVzNMvpwTHHCN-28" value="" style="shape=hexagon;perimeter=hexagonPerimeter2;whiteSpace=wrap;html=1;fixedSize=1;aspect=fixed;fillColor=#d5e8d4;strokeColor=#82b366;" vertex="1" parent="p1k_FwjKVzNMvpwTHHCN-77">
          <mxGeometry x="31" y="20" width="29.9212" height="19.95" as="geometry" />
        </mxCell>
        <mxCell id="p1k_FwjKVzNMvpwTHHCN-29" value="" style="shape=hexagon;perimeter=hexagonPerimeter2;whiteSpace=wrap;html=1;fixedSize=1;aspect=fixed;fillColor=#d5e8d4;strokeColor=#82b366;" vertex="1" parent="p1k_FwjKVzNMvpwTHHCN-77">
          <mxGeometry x="23" width="29.9212" height="19.95" as="geometry" />
        </mxCell>
        <mxCell id="p1k_FwjKVzNMvpwTHHCN-112" value="" style="group" vertex="1" connectable="0" parent="1">
          <mxGeometry x="464.566" y="59.055" width="116" height="279.95" as="geometry" />
        </mxCell>
        <mxCell id="p1k_FwjKVzNMvpwTHHCN-113" value="$$\mathbf{r}_M = \mathbf{r}_{M-1} - f_M(\mathbf{X})$$" style="text;html=1;align=center;verticalAlign=middle;whiteSpace=wrap;rounded=0;" vertex="1" parent="p1k_FwjKVzNMvpwTHHCN-112">
          <mxGeometry width="116" height="30" as="geometry" />
        </mxCell>
        <mxCell id="p1k_FwjKVzNMvpwTHHCN-114" value="$$(\mathbf{X}, \mathbf{r}_{M-1})$$" style="text;html=1;align=center;verticalAlign=middle;whiteSpace=wrap;rounded=0;" vertex="1" parent="p1k_FwjKVzNMvpwTHHCN-112">
          <mxGeometry x="28" y="249.95" width="60" height="30" as="geometry" />
        </mxCell>
        <mxCell id="p1k_FwjKVzNMvpwTHHCN-115" value="" style="group" vertex="1" connectable="0" parent="p1k_FwjKVzNMvpwTHHCN-112">
          <mxGeometry x="27.5394" y="196.245" width="60.9212" height="50.94999999999999" as="geometry" />
        </mxCell>
        <mxCell id="p1k_FwjKVzNMvpwTHHCN-116" value="" style="shape=hexagon;perimeter=hexagonPerimeter2;whiteSpace=wrap;html=1;fixedSize=1;aspect=fixed;fillColor=#d5e8d4;strokeColor=#82b366;" vertex="1" parent="p1k_FwjKVzNMvpwTHHCN-115">
          <mxGeometry x="10" y="31" width="29.9212" height="19.95" as="geometry" />
        </mxCell>
        <mxCell id="p1k_FwjKVzNMvpwTHHCN-117" value="" style="shape=hexagon;perimeter=hexagonPerimeter2;whiteSpace=wrap;html=1;fixedSize=1;aspect=fixed;fillColor=#d5e8d4;strokeColor=#82b366;" vertex="1" parent="p1k_FwjKVzNMvpwTHHCN-115">
          <mxGeometry x="31" y="19.95" width="29.9212" height="19.95" as="geometry" />
        </mxCell>
        <mxCell id="p1k_FwjKVzNMvpwTHHCN-118" value="" style="shape=hexagon;perimeter=hexagonPerimeter2;whiteSpace=wrap;html=1;fixedSize=1;aspect=fixed;fillColor=#d5e8d4;strokeColor=#82b366;" vertex="1" parent="p1k_FwjKVzNMvpwTHHCN-115">
          <mxGeometry y="11" width="29.9212" height="19.95" as="geometry" />
        </mxCell>
        <mxCell id="p1k_FwjKVzNMvpwTHHCN-119" value="" style="shape=hexagon;perimeter=hexagonPerimeter2;whiteSpace=wrap;html=1;fixedSize=1;aspect=fixed;fillColor=#d5e8d4;strokeColor=#82b366;" vertex="1" parent="p1k_FwjKVzNMvpwTHHCN-115">
          <mxGeometry x="23" width="29.9212" height="19.95" as="geometry" />
        </mxCell>
        <mxCell id="p1k_FwjKVzNMvpwTHHCN-120" value="" style="group" vertex="1" connectable="0" parent="p1k_FwjKVzNMvpwTHHCN-112">
          <mxGeometry x="27.5394" y="32.47500000000001" width="60.9212" height="50.95" as="geometry" />
        </mxCell>
        <mxCell id="p1k_FwjKVzNMvpwTHHCN-121" value="" style="shape=hexagon;perimeter=hexagonPerimeter2;whiteSpace=wrap;html=1;fixedSize=1;aspect=fixed;fillColor=#d5e8d4;strokeColor=#82b366;" vertex="1" parent="p1k_FwjKVzNMvpwTHHCN-120">
          <mxGeometry x="10" y="31" width="29.9212" height="19.95" as="geometry" />
        </mxCell>
        <mxCell id="p1k_FwjKVzNMvpwTHHCN-122" value="" style="shape=hexagon;perimeter=hexagonPerimeter2;whiteSpace=wrap;html=1;fixedSize=1;aspect=fixed;fillColor=#d5e8d4;strokeColor=#82b366;" vertex="1" parent="p1k_FwjKVzNMvpwTHHCN-120">
          <mxGeometry y="11" width="29.9212" height="19.95" as="geometry" />
        </mxCell>
        <mxCell id="p1k_FwjKVzNMvpwTHHCN-123" value="" style="shape=hexagon;perimeter=hexagonPerimeter2;whiteSpace=wrap;html=1;fixedSize=1;aspect=fixed;fillColor=#d5e8d4;strokeColor=#82b366;" vertex="1" parent="p1k_FwjKVzNMvpwTHHCN-120">
          <mxGeometry x="31" y="20" width="29.9212" height="19.95" as="geometry" />
        </mxCell>
        <mxCell id="p1k_FwjKVzNMvpwTHHCN-124" value="" style="shape=hexagon;perimeter=hexagonPerimeter2;whiteSpace=wrap;html=1;fixedSize=1;aspect=fixed;fillColor=#d5e8d4;strokeColor=#82b366;" vertex="1" parent="p1k_FwjKVzNMvpwTHHCN-120">
          <mxGeometry x="23" width="29.9212" height="19.95" as="geometry" />
        </mxCell>
        <mxCell id="p1k_FwjKVzNMvpwTHHCN-125" value="$$f_M(\mathbf{X})$$" style="text;html=1;align=center;verticalAlign=middle;whiteSpace=wrap;rounded=0;" vertex="1" parent="p1k_FwjKVzNMvpwTHHCN-112">
          <mxGeometry x="28" y="90.2204" width="60" height="30" as="geometry" />
        </mxCell>
        <mxCell id="p1k_FwjKVzNMvpwTHHCN-126" value="" style="group" vertex="1" connectable="0" parent="p1k_FwjKVzNMvpwTHHCN-112">
          <mxGeometry x="28.472500000000025" y="115.55999999999999" width="59.05499999999998" height="50.68000000000001" as="geometry" />
        </mxCell>
        <mxCell id="p1k_FwjKVzNMvpwTHHCN-127" style="rounded=0;orthogonalLoop=1;jettySize=auto;html=1;entryX=0.5;entryY=0;entryDx=0;entryDy=0;endArrow=none;endFill=0;" edge="1" parent="p1k_FwjKVzNMvpwTHHCN-126" source="p1k_FwjKVzNMvpwTHHCN-129" target="p1k_FwjKVzNMvpwTHHCN-130">
          <mxGeometry relative="1" as="geometry" />
        </mxCell>
        <mxCell id="p1k_FwjKVzNMvpwTHHCN-128" style="rounded=0;orthogonalLoop=1;jettySize=auto;html=1;entryX=0.5;entryY=0;entryDx=0;entryDy=0;endArrow=none;endFill=0;" edge="1" parent="p1k_FwjKVzNMvpwTHHCN-126" source="p1k_FwjKVzNMvpwTHHCN-129" target="p1k_FwjKVzNMvpwTHHCN-131">
          <mxGeometry relative="1" as="geometry" />
        </mxCell>
        <mxCell id="p1k_FwjKVzNMvpwTHHCN-129" value="" style="ellipse;whiteSpace=wrap;html=1;aspect=fixed;fillColor=#f8cecc;strokeColor=#b85450;" vertex="1" parent="p1k_FwjKVzNMvpwTHHCN-126">
          <mxGeometry x="19.685000000000002" width="19.685" height="19.68" as="geometry" />
        </mxCell>
        <mxCell id="p1k_FwjKVzNMvpwTHHCN-130" value="" style="ellipse;whiteSpace=wrap;html=1;aspect=fixed;fillColor=#f8cecc;strokeColor=#b85450;" vertex="1" parent="p1k_FwjKVzNMvpwTHHCN-126">
          <mxGeometry x="39.370000000000005" y="31" width="19.685" height="19.68" as="geometry" />
        </mxCell>
        <mxCell id="p1k_FwjKVzNMvpwTHHCN-131" value="" style="ellipse;whiteSpace=wrap;html=1;aspect=fixed;fillColor=#f8cecc;strokeColor=#b85450;" vertex="1" parent="p1k_FwjKVzNMvpwTHHCN-126">
          <mxGeometry y="31" width="19.685" height="19.68" as="geometry" />
        </mxCell>
        <mxCell id="p1k_FwjKVzNMvpwTHHCN-132" value="" style="endArrow=classic;html=1;rounded=0;fillColor=#e6d0de;strokeColor=#996185;strokeWidth=2;shape=flexArrow;endSize=5;startSize=0;gradientColor=#d5739d;width=6;edgeStyle=orthogonalEdgeStyle;" edge="1" parent="1">
          <mxGeometry width="50" height="50" relative="1" as="geometry">
            <mxPoint x="420" y="120" as="sourcePoint" />
            <mxPoint x="480" y="280" as="targetPoint" />
            <Array as="points">
              <mxPoint x="450" y="119.01" />
              <mxPoint x="450" y="279.01" />
            </Array>
          </mxGeometry>
        </mxCell>
        <mxCell id="p1k_FwjKVzNMvpwTHHCN-133" value="&amp;nbsp;Repeat M-1 times&amp;nbsp; " style="edgeLabel;html=1;align=center;verticalAlign=middle;resizable=0;points=[];labelBorderColor=default;" vertex="1" connectable="0" parent="p1k_FwjKVzNMvpwTHHCN-132">
          <mxGeometry x="0.2786" relative="1" as="geometry">
            <mxPoint x="-1" y="-42" as="offset" />
          </mxGeometry>
        </mxCell>
      </root>
    </mxGraphModel>
  </diagram>
</mxfile>
